<svg width="124" height="32" viewBox="0 0 124 32" fill="none" xmlns="http://www.w3.org/2000/svg">
<path d="M12.6791 9.73486L21.1338 23.8853H4.22433L12.6791 9.73486Z" fill="black"/>
<path d="M26.7196 16.9731L19.7848 5.53763L33.6544 5.53763L26.7196 16.9731Z" fill="black"/>
<path d="M110.286 15.5571C110.286 14.2484 110.581 13.0964 111.171 12.101C111.779 11.1056 112.599 10.3315 113.632 9.7785C114.664 9.20709 115.834 8.92139 117.143 8.92139C118.452 8.92139 119.613 9.20709 120.627 9.7785C121.659 10.3315 122.479 11.1056 123.088 12.101C123.696 13.0964 124 14.2484 124 15.5571C124 16.8474 123.696 17.9994 123.088 19.0132C122.479 20.0086 121.659 20.7919 120.627 21.3634C119.613 21.9163 118.452 22.1928 117.143 22.1928C115.834 22.1928 114.664 21.9163 113.632 21.3634C112.599 20.7919 111.779 20.0086 111.171 19.0132C110.581 17.9994 110.286 16.8474 110.286 15.5571ZM113.355 15.5571C113.355 16.3497 113.521 17.0501 113.853 17.6584C114.185 18.2483 114.636 18.7183 115.208 19.0685C115.779 19.4003 116.424 19.5662 117.143 19.5662C117.843 19.5662 118.479 19.4003 119.051 19.0685C119.641 18.7183 120.101 18.2483 120.433 17.6584C120.765 17.0501 120.931 16.3497 120.931 15.5571C120.931 14.7645 120.765 14.0641 120.433 13.4558C120.101 12.8475 119.641 12.3775 119.051 12.0457C118.479 11.7139 117.843 11.548 117.143 11.548C116.424 11.548 115.779 11.7139 115.208 12.0457C114.636 12.3775 114.185 12.8475 113.853 13.4558C113.521 14.0641 113.355 14.7645 113.355 15.5571Z" fill="black"/>
<path d="M96.5989 9.19873H99.8614L103.179 17.4104L106.497 9.19873H109.787L103.179 23.0784L96.5989 9.19873Z" fill="black"/>
<path d="M82.3931 15.5571C82.3931 14.2484 82.688 13.0964 83.2778 12.101C83.8861 11.1056 84.7063 10.3315 85.7386 9.7785C86.7708 9.20709 87.9413 8.92139 89.25 8.92139C90.5587 8.92139 91.7199 9.20709 92.7337 9.7785C93.7659 10.3315 94.5862 11.1056 95.1945 12.101C95.8027 13.0964 96.1069 14.2484 96.1069 15.5571C96.1069 16.8474 95.8027 17.9994 95.1945 19.0132C94.5862 20.0086 93.7659 20.7919 92.7337 21.3634C91.7199 21.9163 90.5587 22.1928 89.25 22.1928C87.9413 22.1928 86.7708 21.9163 85.7386 21.3634C84.7063 20.7919 83.8861 20.0086 83.2778 19.0132C82.688 17.9994 82.3931 16.8474 82.3931 15.5571ZM85.4621 15.5571C85.4621 16.3497 85.628 17.0501 85.9598 17.6584C86.2915 18.2483 86.7431 18.7183 87.3146 19.0685C87.886 19.4003 88.5311 19.5662 89.25 19.5662C89.9504 19.5662 90.5863 19.4003 91.1577 19.0685C91.7476 18.7183 92.2084 18.2483 92.5402 17.6584C92.872 17.0501 93.0379 16.3497 93.0379 15.5571C93.0379 14.7645 92.872 14.0641 92.5402 13.4558C92.2084 12.8475 91.7476 12.3775 91.1577 12.0457C90.5863 11.7139 89.9504 11.548 89.25 11.548C88.5311 11.548 87.886 11.7139 87.3146 12.0457C86.7431 12.3775 86.2915 12.8475 85.9598 13.4558C85.628 14.0641 85.4621 14.7645 85.4621 15.5571Z" fill="black"/>
<path d="M76.4785 14.1747C76.4785 13.2346 76.2849 12.5249 75.8979 12.0457C75.5108 11.5665 74.9117 11.3268 74.1007 11.3268C73.5477 11.3268 73.0592 11.4466 72.6353 11.6863C72.2113 11.9075 71.8796 12.2392 71.6399 12.6816C71.4003 13.1056 71.2805 13.6033 71.2805 14.1747V21.9163H68.2944V9.19788H71.2805V11.1609C71.686 10.4052 72.2021 9.84301 72.8288 9.47436C73.474 9.10571 74.2389 8.92139 75.1237 8.92139C76.5614 8.92139 77.6582 9.36377 78.4139 10.2485C79.1696 11.1149 79.5475 12.313 79.5475 13.8429V21.9163H76.4785V14.1747Z" fill="black"/>
<path d="M57.1464 17.7414C57.5519 18.1837 57.9574 18.5708 58.363 18.9026C58.7869 19.216 59.2109 19.4556 59.6348 19.6215C60.0588 19.7689 60.4827 19.8427 60.9067 19.8427C61.4412 19.8427 61.8559 19.7229 62.1509 19.4832C62.4642 19.2436 62.6209 18.9118 62.6209 18.4879C62.6209 18.1192 62.5011 17.8059 62.2614 17.5478C62.0218 17.2713 61.69 17.0409 61.2661 16.8566C60.8421 16.6538 60.3445 16.4511 59.7731 16.2483C59.2016 16.0271 58.6302 15.7691 58.0588 15.4742C57.5059 15.1608 57.045 14.7553 56.6764 14.2576C56.3262 13.7599 56.1511 13.1332 56.1511 12.3775C56.1511 11.6033 56.3446 10.9582 56.7317 10.4421C57.1372 9.92596 57.6717 9.54809 58.3353 9.30847C59.0173 9.05041 59.7454 8.92139 60.5196 8.92139C61.22 8.92139 61.8744 9.02277 62.4826 9.22552C63.1093 9.42828 63.6715 9.69555 64.1692 10.0273C64.6669 10.3591 65.0908 10.737 65.4411 11.1609L63.7821 12.9305C63.3582 12.4328 62.8513 12.0273 62.2614 11.7139C61.6716 11.4006 61.0633 11.2439 60.4366 11.2439C60.0127 11.2439 59.6625 11.3361 59.386 11.5204C59.1095 11.7047 58.9712 11.972 58.9712 12.3222C58.9712 12.6171 59.0911 12.8844 59.3307 13.124C59.5887 13.3452 59.9205 13.548 60.326 13.7323C60.75 13.9166 61.22 14.1101 61.7361 14.3129C62.4366 14.5894 63.0817 14.8935 63.6715 15.2253C64.2614 15.5571 64.7314 15.9626 65.0816 16.4419C65.4503 16.9211 65.6346 17.5478 65.6346 18.322C65.6346 19.5201 65.2199 20.4878 64.3904 21.2251C63.5794 21.944 62.4734 22.3034 61.0725 22.3034C60.2062 22.3034 59.4044 22.1744 58.6671 21.9163C57.9482 21.6398 57.3123 21.2896 56.7593 20.8657C56.2248 20.4233 55.7732 19.9625 55.4045 19.4832L57.1464 17.7414Z" fill="black"/>
<path d="M40.0239 15.5571C40.0239 14.2484 40.3188 13.0964 40.9087 12.101C41.517 11.1056 42.3372 10.3315 43.3694 9.7785C44.4017 9.20709 45.5721 8.92139 46.8808 8.92139C48.1895 8.92139 49.3508 9.20709 50.3646 9.7785C51.3968 10.3315 52.2171 11.1056 52.8253 12.101C53.4336 13.0964 53.7377 14.2484 53.7377 15.5571C53.7377 16.8474 53.4336 17.9994 52.8253 19.0132C52.2171 20.0086 51.3968 20.7919 50.3646 21.3634C49.3508 21.9163 48.1895 22.1928 46.8808 22.1928C45.5721 22.1928 44.4017 21.9163 43.3694 21.3634C42.3372 20.7919 41.517 20.0086 40.9087 19.0132C40.3188 17.9994 40.0239 16.8474 40.0239 15.5571ZM43.0929 15.5571C43.0929 16.3497 43.2588 17.0501 43.5906 17.6584C43.9224 18.2483 44.374 18.7183 44.9454 19.0685C45.5168 19.4003 46.162 19.5662 46.8808 19.5662C47.5813 19.5662 48.2172 19.4003 48.7886 19.0685C49.3784 18.7183 49.8393 18.2483 50.171 17.6584C50.5028 17.0501 50.6687 16.3497 50.6687 15.5571C50.6687 14.7645 50.5028 14.0641 50.171 13.4558C49.8393 12.8475 49.3784 12.3775 48.7886 12.0457C48.2172 11.7139 47.5813 11.548 46.8808 11.548C46.162 11.548 45.5168 11.7139 44.9454 12.0457C44.374 12.3775 43.9224 12.8475 43.5906 13.4558C43.2588 14.0641 43.0929 14.7645 43.0929 15.5571Z" fill="black"/>
</svg>
