<svg width="752" height="128" viewBox="0 0 752 128" fill="none" xmlns="http://www.w3.org/2000/svg">
<mask id="path-1-inside-1_114_486" fill="white">
<path d="M0.162842 0.661133L751.314 0.661133V127.661L0.162842 127.661L0.162842 0.661133Z"/>
</mask>
<path d="M0.162842 0.661133L751.314 0.661133V127.661L0.162842 127.661L0.162842 0.661133Z" fill="black"/>
<path d="M751.314 124.661L0.162842 124.661L0.162842 130.661H751.314V124.661Z" fill="black" mask="url(#path-1-inside-1_114_486)"/>
<path d="M36.2448 25.1511C46.8228 22.5711 56.8848 26.5271 63.5068 35.4711C73.3108 49.1451 72.6228 72.5371 58.6048 83.9751C55.0788 86.7271 51.2088 88.8771 47.0808 89.9951C42.3508 91.3711 37.1908 92.4031 32.2888 91.3711C23.0868 89.4791 21.9688 79.6751 22.7428 71.7631C24.1188 58.0891 26.3548 44.5871 26.3548 30.9131C26.3548 25.0651 32.3748 23.0871 36.2448 25.1511ZM35.9868 78.2991C44.8448 78.2991 53.0148 72.8811 55.7668 64.0231C57.9168 56.8851 57.0568 48.1991 52.4128 42.6091C49.5748 39.0831 45.2748 37.1911 39.2548 38.3091C38.5668 50.0911 36.5028 61.7871 35.7288 73.6551C35.6428 75.1171 35.4708 76.6651 35.7288 78.1271C35.7288 78.2131 35.7288 78.2131 35.7288 78.2991C35.8148 78.2991 35.9008 78.2991 35.9868 78.2991ZM76.771 61.5291C84.081 42.8671 113.063 43.4691 113.235 67.4631C113.321 74.0851 109.365 80.5351 103.345 83.9751C96.379 87.9311 87.091 87.3291 80.985 81.9111C75.567 77.0091 74.105 68.3231 76.771 61.5291ZM98.357 73.1391C101.625 70.6451 103.431 64.3671 99.733 61.3571C97.325 59.2071 93.025 58.7771 90.015 61.3571C86.747 63.9371 85.371 69.4411 88.639 72.9671C91.047 75.7191 95.519 75.2891 98.357 73.1391ZM172.405 44.4151C176.791 57.4871 175.243 70.3011 177.737 83.8891C178.339 87.3291 176.619 90.7691 173.265 91.7151C169.911 92.5751 166.385 90.5971 165.439 87.2431C164.063 82.0831 164.063 76.4071 163.633 71.0751C162.343 52.7571 160.365 40.7171 152.023 51.2091C146.863 57.7451 144.025 64.9691 141.617 72.9671C140.155 78.3851 138.607 83.9751 135.597 88.7911C132.587 93.6071 125.793 92.4891 123.987 87.2431C119.945 75.3751 117.709 59.9811 120.203 47.0811C120.891 43.7271 124.933 41.8351 128.029 42.6951C131.555 43.6411 133.103 47.0811 132.415 50.4351C132.415 53.9611 131.899 57.4011 131.985 61.2711C137.145 52.4991 142.649 33.4931 155.549 31.6011C164.063 30.3971 169.567 36.0731 172.405 44.4151ZM229.415 48.9731C229.845 56.2831 231.221 63.5071 232.081 70.9031C233.113 79.7611 234.575 91.2851 229.243 99.1971C220.299 112.527 202.067 110.549 188.307 107.797C184.953 107.109 183.061 103.153 183.921 99.9711C184.867 96.4451 188.307 94.8111 191.747 95.4991C199.573 97.3911 211.527 100.401 217.203 91.4571C220.987 85.4371 221.417 76.0631 219.095 68.4951C213.935 74.5151 204.475 83.5451 195.187 80.6211C186.243 77.8691 183.233 67.8931 184.523 59.5511C185.813 50.6071 192.091 42.6951 199.229 37.5351C205.593 32.9771 213.247 30.8271 220.643 32.5471C221.417 32.1171 222.363 31.8591 223.481 31.8591C226.491 31.8591 228.555 33.8371 229.587 36.5031C231.049 40.4591 230.619 44.8451 229.415 48.9731ZM205.593 64.3671C210.495 59.4651 214.451 53.9611 216.687 47.1671C217.719 44.1571 214.795 44.2431 212.387 44.9311C207.055 46.5651 201.809 50.6931 198.971 55.8531C195.015 63.2491 196.649 73.3111 205.593 64.3671ZM239.785 61.5291C247.095 42.8671 276.077 43.4691 276.249 67.4631C276.335 74.0851 272.379 80.5351 266.359 83.9751C259.393 87.9311 250.105 87.3291 243.999 81.9111C238.581 77.0091 237.119 68.3231 239.785 61.5291ZM261.371 73.1391C264.639 70.6451 266.445 64.3671 262.747 61.3571C260.339 59.2071 256.039 58.7771 253.029 61.3571C249.761 63.9371 248.385 69.4411 251.653 72.9671C254.061 75.7191 258.533 75.2891 261.371 73.1391ZM335.419 44.4151C339.805 57.4871 338.257 70.3011 340.751 83.8891C341.353 87.3291 339.633 90.7691 336.279 91.7151C332.925 92.5751 329.399 90.5971 328.453 87.2431C327.077 82.0831 327.077 76.4071 326.647 71.0751C325.357 52.7571 323.379 40.7171 315.037 51.2091C309.877 57.7451 307.039 64.9691 304.631 72.9671C303.169 78.3851 301.621 83.9751 298.611 88.7911C295.601 93.6071 288.807 92.4891 287.001 87.2431C282.959 75.3751 280.723 59.9811 283.217 47.0811C283.905 43.7271 287.947 41.8351 291.043 42.6951C294.569 43.6411 296.117 47.0811 295.429 50.4351C295.429 53.9611 294.913 57.4011 294.999 61.2711C300.159 52.4991 305.663 33.4931 318.563 31.6011C327.077 30.3971 332.581 36.0731 335.419 44.4151ZM347.537 61.5291C354.847 42.8671 383.829 43.4691 384.001 67.4631C384.087 74.0851 380.131 80.5351 374.111 83.9751C367.145 87.9311 357.857 87.3291 351.751 81.9111C346.333 77.0091 344.871 68.3231 347.537 61.5291ZM369.123 73.1391C372.391 70.6451 374.197 64.3671 370.499 61.3571C368.091 59.2071 363.791 58.7771 360.781 61.3571C357.513 63.9371 356.137 69.4411 359.405 72.9671C361.813 75.7191 366.285 75.2891 369.123 73.1391ZM417.973 45.5331C424.423 38.3091 434.055 41.7491 438.527 49.7471C444.031 59.5511 441.021 75.1171 439.215 84.8351C438.613 88.1031 434.743 89.7371 431.905 89.0491C428.465 88.1031 427.261 84.9211 427.691 81.6531C428.551 75.7191 431.389 63.0771 429.067 57.4011C427.605 53.4451 423.907 53.7891 422.187 59.8091C420.811 63.7651 420.725 68.7531 420.209 72.8811C419.779 75.5471 416.769 77.3531 414.361 77.3531C411.953 77.3531 409.201 75.5471 408.685 72.8811C408.255 70.9891 408.255 67.1191 407.567 64.1951C404.729 52.8431 401.203 57.9171 401.203 66.7751C401.203 71.4191 401.461 76.3211 402.923 81.3951C403.783 84.5771 401.891 87.9311 398.795 88.7911C395.785 89.5651 392.345 87.7591 391.485 84.5771C389.851 78.2991 389.163 71.3331 389.421 64.7971C389.765 57.7451 391.313 49.1451 398.365 45.7911C405.847 42.2651 410.835 45.8771 414.103 51.6391C415.135 49.4891 416.425 47.3391 417.973 45.5331ZM453.388 87.4151C450.034 87.4151 447.54 84.6631 447.454 81.3951C447.282 72.6231 449.174 63.9371 449.26 55.1651C449.26 51.8971 452.012 49.2311 455.28 49.2311C458.548 49.2311 461.214 51.8971 461.214 55.1651C461.128 63.9371 459.236 72.6231 459.408 81.3951C459.494 84.6631 456.656 87.4151 453.388 87.4151ZM458.204 43.6411C456.656 43.6411 455.108 43.0391 453.99 41.9211C452.872 40.8031 452.184 39.2551 452.184 37.7071C452.184 36.0731 452.872 34.5251 453.99 33.4071C455.108 32.2891 456.656 31.6871 458.204 31.6871C458.29 31.6871 458.376 31.6871 458.462 31.6871C460.096 31.6871 461.472 32.2891 462.59 33.4071C463.794 34.5251 464.396 36.0731 464.396 37.7071C464.396 39.2551 463.794 40.8031 462.59 41.9211C461.472 43.0391 460.096 43.6411 458.462 43.6411C458.376 43.6411 458.29 43.6411 458.204 43.6411ZM494.192 69.8711C496.772 67.8931 500.814 69.4411 502.362 72.0211C504.082 75.1171 502.792 78.2991 500.126 80.1911C494.622 84.4051 486.71 86.8991 479.744 84.5771C473.208 82.4271 468.22 77.0951 467.188 70.1291C465.984 62.1311 468.478 53.4451 474.326 47.5111C480.26 41.0611 490.15 39.2551 497.718 45.6191C500.126 47.7691 499.782 51.8971 497.718 54.1331C495.31 56.4551 491.698 56.1971 489.204 54.1331C487.656 52.8431 485.764 53.2731 483.958 54.8211C481.034 57.2291 478.712 63.3351 479.142 67.8931C479.916 76.4071 489.118 73.4831 494.192 69.8711ZM531.047 65.1411C533.369 67.4631 535.777 70.0431 537.153 73.0531C540.507 80.3631 537.583 88.3611 530.273 91.4571C524.941 93.8651 518.577 94.6391 512.729 93.8651C509.461 93.4351 506.709 91.4571 506.709 88.0171C506.709 85.0931 509.461 81.5671 512.729 82.0831C514.707 81.9971 519.007 82.4271 522.189 81.9111C529.499 80.7071 524.769 75.6331 521.587 72.4511C515.567 66.6891 510.321 59.3791 514.019 50.8651C516.771 44.1571 526.059 38.1371 534.057 39.5991C537.325 40.2011 539.045 43.9851 538.271 46.9091C537.497 49.9191 534.831 51.2091 532.079 51.2951C530.101 51.3811 527.693 52.2411 526.231 53.4451C521.759 57.0571 528.295 62.2171 531.047 65.1411Z" fill="#F5F6DD"/>
<rect x="605.314" y="79.6611" width="36" height="36" rx="18" fill="#F5F6DD"/>
<path d="M622.689 109.661V104.081C622.064 105.017 620.814 106.169 618.352 107.033C618.352 107.033 618.977 104.981 620.739 103.601C619.114 103.937 616.664 103.889 613.314 102.461C613.314 102.461 616.402 100.769 619.914 101.225C617.927 100.061 615.439 97.7571 613.527 92.9931C613.527 92.9931 619.152 94.4691 621.952 99.0291C619.414 93.1491 623.314 85.6611 623.314 85.6611C626.352 92.2251 625.702 96.5811 624.714 98.9811C627.527 94.4571 633.102 92.9931 633.102 92.9931C631.189 97.7571 628.702 100.061 626.714 101.225C630.227 100.769 633.314 102.461 633.314 102.461C629.964 103.889 627.514 103.937 625.889 103.601C627.652 104.981 628.277 107.033 628.277 107.033C625.814 106.169 624.564 105.017 623.939 104.081V109.661H622.689Z" fill="black"/>
<rect x="650.314" y="79.6611" width="36" height="36" rx="18" fill="#F5F6DD"/>
<path d="M678.099 100.051L675.599 104.381C675.109 105.241 674.199 105.691 673.279 105.631H671.279V107.631L668.779 103.131L671.279 98.6312V100.631H674.099L671.879 96.7812L676.209 94.2812L678.009 97.4012C678.529 98.1712 678.599 99.2012 678.099 100.051ZM665.489 87.6912H670.489C671.469 87.6912 672.319 88.2612 672.729 89.0812L673.729 90.8212L675.459 89.8212L672.819 94.2312L667.669 94.3212L669.399 93.3212L667.989 90.8712L665.779 94.7212L661.439 92.2212L663.239 89.1012C663.649 88.2712 664.499 87.6912 665.489 87.6912ZM661.329 104.391L658.829 100.061C658.339 99.2112 658.409 98.1912 658.919 97.4212L659.919 95.6912L658.189 94.6912L663.329 94.7712L665.979 99.1912L664.249 98.1912L662.839 100.631H667.279V105.631H663.679C663.211 105.665 662.742 105.567 662.327 105.348C661.911 105.128 661.566 104.797 661.329 104.391Z" fill="black"/>
<rect x="695.314" y="79.6611" width="36" height="36" rx="18" fill="#F5F6DD"/>
<path d="M713.043 106.173C712.493 106.173 711.939 106.111 711.381 105.986C710.823 105.862 710.252 105.682 709.668 105.448C709.868 103.432 710.451 101.548 711.418 99.7983C712.384 98.0483 713.626 96.5066 715.143 95.1733C713.309 96.1066 711.722 97.34 710.381 98.8733C709.039 100.407 708.102 102.157 707.568 104.123C707.501 104.073 707.439 104.019 707.381 103.961L707.193 103.773C706.409 102.99 705.814 102.115 705.406 101.148C704.998 100.182 704.793 99.1733 704.793 98.1233C704.793 96.99 705.018 95.9066 705.468 94.8733C705.918 93.84 706.543 92.9233 707.343 92.1233C708.693 90.7733 710.443 89.8943 712.593 89.4863C714.743 89.0783 717.759 89.0406 721.643 89.3733C721.943 93.3566 721.893 96.3943 721.493 98.4863C721.093 100.578 720.226 102.291 718.893 103.623C718.076 104.44 717.163 105.069 716.155 105.511C715.146 105.953 714.109 106.174 713.043 106.173Z" fill="black"/>
</svg>
