<svg width="1921" height="123" viewBox="0 0 1921 123" fill="none" xmlns="http://www.w3.org/2000/svg">
<g clip-path="url(#clip0_203_770)">
<mask id="path-1-outside-1_203_770" maskUnits="userSpaceOnUse" x="-433.845" y="-2.85632" width="3662" height="1047" fill="black">
<rect fill="white" x="-433.845" y="-2.85632" width="3662" height="1047"/>
<path fill-rule="evenodd" clip-rule="evenodd" d="M3221.79 46.783C3185.14 24.8731 2977.27 -23.0562 2764.22 21.4243C2602.97 55.0892 2516.97 44.2559 2429.95 33.2934C2373.24 26.1503 2316.1 18.9523 2237.42 23.9741C2141.11 30.121 2091.41 41.8506 2043.87 53.068C1992.98 65.0788 1944.57 76.5024 1844.11 79.8571C1739.92 83.3363 1689.43 74.2303 1635.39 64.4841C1578.75 54.2697 1518.22 43.3522 1387.88 45.4815C1286.83 47.1323 1219.34 60.0373 1152.93 72.7334C1051.96 92.0386 953.521 110.861 743.475 88.9022C395.291 52.502 98.926 86.9397 -11.8647 105.681C-74.5028 116.276 -185.886 112.262 -287.244 108.61C-329.307 107.094 -369.643 105.64 -404.053 105.319L-426.845 386.589L-92.5915 377.784V1038H2039.41V321.624L3203.49 290.96L3221.79 46.783Z"/>
</mask>
<path fill-rule="evenodd" clip-rule="evenodd" d="M3221.79 46.783C3185.14 24.8731 2977.27 -23.0562 2764.22 21.4243C2602.97 55.0892 2516.97 44.2559 2429.95 33.2934C2373.24 26.1503 2316.1 18.9523 2237.42 23.9741C2141.11 30.121 2091.41 41.8506 2043.87 53.068C1992.98 65.0788 1944.57 76.5024 1844.11 79.8571C1739.92 83.3363 1689.43 74.2303 1635.39 64.4841C1578.75 54.2697 1518.22 43.3522 1387.88 45.4815C1286.83 47.1323 1219.34 60.0373 1152.93 72.7334C1051.96 92.0386 953.521 110.861 743.475 88.9022C395.291 52.502 98.926 86.9397 -11.8647 105.681C-74.5028 116.276 -185.886 112.262 -287.244 108.61C-329.307 107.094 -369.643 105.64 -404.053 105.319L-426.845 386.589L-92.5915 377.784V1038H2039.41V321.624L3203.49 290.96L3221.79 46.783Z" fill="#9239D1"/>
<path d="M2764.22 21.4243L2762.99 15.551L2764.22 21.4243ZM3221.79 46.783L3227.78 47.2315L3228.05 43.5349L3224.87 41.6329L3221.79 46.783ZM2429.95 33.2934L2430.69 27.3404L2429.95 33.2934ZM2237.42 23.9741L2237.8 29.9619L2237.42 23.9741ZM2043.87 53.068L2042.5 47.2284L2043.87 53.068ZM1844.11 79.8571L1843.91 73.8605L1844.11 79.8571ZM1635.39 64.4841L1636.45 58.5793L1635.39 64.4841ZM1387.88 45.4815L1387.98 51.4807L1387.88 45.4815ZM1152.93 72.7334L1151.81 66.8402L1152.93 72.7334ZM743.475 88.9022L742.851 94.8697L743.475 88.9022ZM-11.8647 105.681L-12.8655 99.7647L-11.8647 105.681ZM-287.244 108.61L-287.028 102.614L-287.244 108.61ZM-404.053 105.319L-403.997 99.319L-409.582 99.2668L-410.033 104.834L-404.053 105.319ZM-426.845 386.589L-432.825 386.104L-433.365 392.763L-426.687 392.587L-426.845 386.589ZM-92.5915 377.784H-86.5915V371.624L-92.7495 371.786L-92.5915 377.784ZM-92.5915 1038H-98.5915V1044H-92.5915V1038ZM2039.41 1038V1044H2045.41V1038H2039.41ZM2039.41 321.624L2039.25 315.626L2033.41 315.78V321.624H2039.41ZM3203.49 290.96L3203.65 296.958L3209.06 296.815L3209.47 291.408L3203.49 290.96ZM2765.44 27.2977C2871.21 5.21724 2975.78 6.06087 3058.5 15.1712C3099.85 19.725 3135.66 26.3366 3163.36 33.1487C3191.29 40.0173 3210.38 46.9535 3218.71 51.9331L3224.87 41.6329C3214.87 35.6575 3194.24 28.3863 3166.23 21.496C3137.98 14.5493 3101.65 7.85047 3059.81 3.24331C2976.17 -5.96836 2870.29 -6.84911 2762.99 15.551L2765.44 27.2977ZM2429.2 39.2464C2516.54 50.2492 2603.28 61.1538 2765.44 27.2977L2762.99 15.551C2602.66 49.0246 2517.4 38.2626 2430.69 27.3404L2429.2 39.2464ZM2237.8 29.9619C2315.87 24.9789 2372.53 32.1085 2429.2 39.2464L2430.69 27.3404C2373.95 20.192 2316.33 12.9257 2237.04 17.9862L2237.8 29.9619ZM2045.25 58.9076C2092.62 47.7295 2141.96 36.079 2237.8 29.9619L2237.04 17.9862C2140.26 24.1631 2090.2 35.9717 2042.5 47.2284L2045.25 58.9076ZM1844.31 85.8538C1945.31 82.4809 1994.14 70.9685 2045.25 58.9076L2042.5 47.2284C1991.81 59.1891 1943.83 70.5239 1843.91 73.8605L1844.31 85.8538ZM1634.32 70.3888C1688.59 80.1763 1739.54 89.3524 1844.31 85.8538L1843.91 73.8605C1740.3 77.3203 1690.26 68.2843 1636.45 58.5793L1634.32 70.3888ZM1387.98 51.4807C1517.81 49.3596 1577.93 60.2193 1634.32 70.3888L1636.45 58.5793C1579.57 48.3201 1518.62 37.3447 1387.78 39.4823L1387.98 51.4807ZM1154.06 78.6267C1220.39 65.9435 1287.47 53.1227 1387.98 51.4807L1387.78 39.4823C1286.19 41.1419 1218.28 54.131 1151.81 66.8402L1154.06 78.6267ZM742.851 94.8697C953.674 116.91 1052.74 97.9984 1154.06 78.6267L1151.81 66.8402C1051.19 86.0787 953.367 104.812 744.099 82.9348L742.851 94.8697ZM-10.864 111.597C99.5333 92.9222 395.336 58.5394 742.851 94.8697L744.099 82.9348C395.246 46.4646 98.3185 80.9572 -12.8655 99.7647L-10.864 111.597ZM-287.46 114.606C-186.431 118.247 -74.2648 122.321 -10.864 111.597L-12.8655 99.7647C-74.7408 110.231 -185.342 106.278 -287.028 102.614L-287.46 114.606ZM-404.109 111.318C-369.796 111.639 -329.547 113.089 -287.46 114.606L-287.028 102.614C-329.068 101.099 -369.491 99.6413 -403.997 99.319L-404.109 111.318ZM-420.864 387.074L-398.072 105.803L-410.033 104.834L-432.825 386.104L-420.864 387.074ZM-92.7495 371.786L-427.003 380.591L-426.687 392.587L-92.4335 383.782L-92.7495 371.786ZM-86.5915 1038V377.784H-98.5915V1038H-86.5915ZM2039.41 1032H-92.5915V1044H2039.41V1032ZM2033.41 321.624V1038H2045.41V321.624H2033.41ZM3203.33 284.962L2039.25 315.626L2039.57 327.622L3203.65 296.958L3203.33 284.962ZM3215.81 46.3344L3197.5 290.511L3209.47 291.408L3227.78 47.2315L3215.81 46.3344Z" fill="black" mask="url(#path-1-outside-1_203_770)"/>
<mask id="path-3-inside-2_203_770" fill="white">
<path fill-rule="evenodd" clip-rule="evenodd" d="M3221.79 46.783C3185.14 24.8731 2977.27 -23.0562 2764.22 21.4243C2602.97 55.0892 2516.97 44.2559 2429.95 33.2934C2373.24 26.1503 2316.1 18.9523 2237.42 23.9741C2141.11 30.121 2091.41 41.8506 2043.87 53.068C1992.98 65.0788 1944.57 76.5024 1844.11 79.8571C1739.92 83.3363 1689.43 74.2303 1635.39 64.4841C1578.75 54.2697 1518.22 43.3522 1387.88 45.4815C1286.83 47.1323 1219.34 60.0373 1152.93 72.7334C1051.96 92.0386 953.521 110.861 743.475 88.9022C395.291 52.502 98.926 86.9397 -11.8647 105.681C-74.5028 116.276 -185.886 112.262 -287.244 108.61C-329.307 107.094 -369.643 105.64 -404.053 105.319L-426.845 386.589L-92.5915 377.784V1038H2039.41V321.624L3203.49 290.96L3221.79 46.783Z"/>
</mask>
<path fill-rule="evenodd" clip-rule="evenodd" d="M3221.79 46.783C3185.14 24.8731 2977.27 -23.0562 2764.22 21.4243C2602.97 55.0892 2516.97 44.2559 2429.95 33.2934C2373.24 26.1503 2316.1 18.9523 2237.42 23.9741C2141.11 30.121 2091.41 41.8506 2043.87 53.068C1992.98 65.0788 1944.57 76.5024 1844.11 79.8571C1739.92 83.3363 1689.43 74.2303 1635.39 64.4841C1578.75 54.2697 1518.22 43.3522 1387.88 45.4815C1286.83 47.1323 1219.34 60.0373 1152.93 72.7334C1051.96 92.0386 953.521 110.861 743.475 88.9022C395.291 52.502 98.926 86.9397 -11.8647 105.681C-74.5028 116.276 -185.886 112.262 -287.244 108.61C-329.307 107.094 -369.643 105.64 -404.053 105.319L-426.845 386.589L-92.5915 377.784V1038H2039.41V321.624L3203.49 290.96L3221.79 46.783Z" fill="#9239D1"/>
<path d="M2764.22 21.4243L2762.58 13.5932L2764.22 21.4243ZM3221.79 46.783L3229.77 47.3811L3230.14 42.4522L3225.9 39.9162L3221.79 46.783ZM2429.95 33.2934L2430.94 25.3561L2429.95 33.2934ZM2237.42 23.9741L2237.93 31.9578L2237.42 23.9741ZM2043.87 53.068L2042.04 45.2818L2043.87 53.068ZM1844.11 79.8571L1843.84 71.8616L1844.11 79.8571ZM1635.39 64.4841L1636.81 56.6111L1635.39 64.4841ZM1387.88 45.4815L1388.01 53.4804L1387.88 45.4815ZM1152.93 72.7334L1151.43 64.8758L1152.93 72.7334ZM743.475 88.9022L742.643 96.8589L743.475 88.9022ZM-11.8647 105.681L-13.199 97.7927L-11.8647 105.681ZM-287.244 108.61L-286.956 100.615L-287.244 108.61ZM-404.053 105.319L-403.978 97.3191L-411.425 97.2495L-412.027 104.673L-404.053 105.319ZM-426.845 386.589L-434.819 385.943L-435.538 394.821L-426.634 394.586L-426.845 386.589ZM-92.5915 377.784H-84.5915V369.571L-92.8022 369.787L-92.5915 377.784ZM-92.5915 1038H-100.591V1046H-92.5915V1038ZM2039.41 1038V1046H2047.41V1038H2039.41ZM2039.41 321.624L2039.2 313.626L2031.41 313.832V321.624H2039.41ZM3203.49 290.96L3203.7 298.957L3210.92 298.767L3211.46 291.558L3203.49 290.96ZM2765.85 29.2555C2871.36 7.2283 2975.71 8.06574 3058.28 17.1592C3099.55 21.7041 3135.28 28.3012 3162.88 35.0909C3190.8 41.9558 3209.64 48.8362 3217.69 53.6498L3225.9 39.9162C3215.62 33.7748 3194.73 26.4478 3166.71 19.5539C3138.37 12.5847 3101.94 5.87138 3060.03 1.25533C2976.24 -7.97324 2870.13 -8.86017 2762.58 13.5932L2765.85 29.2555ZM2428.95 41.2307C2516.4 52.247 2603.38 63.1753 2765.85 29.2555L2762.58 13.5932C2602.55 47.0031 2517.54 36.2649 2430.94 25.3561L2428.95 41.2307ZM2237.93 31.9578C2315.8 26.9878 2372.3 34.0946 2428.95 41.2307L2430.94 25.3561C2374.18 18.206 2316.4 10.9168 2236.91 15.9903L2237.93 31.9578ZM2045.71 60.8541C2093.02 49.6891 2142.25 38.065 2237.93 31.9578L2236.91 15.9903C2139.98 22.1771 2089.79 34.0121 2042.04 45.2818L2045.71 60.8541ZM1844.37 87.8527C1945.56 84.4738 1994.53 72.9317 2045.71 60.8541L2042.04 45.2818C1991.42 57.2259 1943.58 68.531 1843.84 71.8616L1844.37 87.8527ZM1633.97 72.357C1688.31 82.1583 1739.41 91.3577 1844.37 87.8527L1843.84 71.8616C1740.42 75.315 1690.54 66.3024 1636.81 56.6111L1633.97 72.357ZM1388.01 53.4804C1517.67 51.3621 1577.66 62.2025 1633.97 72.357L1636.81 56.6111C1579.84 46.3369 1518.76 35.3422 1387.75 37.4825L1388.01 53.4804ZM1154.44 80.5911C1220.75 67.9123 1287.68 55.1194 1388.01 53.4804L1387.75 37.4825C1285.98 39.1452 1217.92 52.1622 1151.43 64.8758L1154.44 80.5911ZM742.643 96.8589C953.725 118.926 1053 99.985 1154.44 80.5911L1151.43 64.8758C1050.93 84.0921 953.316 102.796 744.307 80.9456L742.643 96.8589ZM-10.5305 113.569C99.7358 94.9163 395.351 60.5519 742.643 96.8589L744.307 80.9456C395.231 44.4521 98.1161 78.963 -13.199 97.7927L-10.5305 113.569ZM-287.533 116.604C-186.612 120.241 -74.1855 124.336 -10.5305 113.569L-13.199 97.7927C-74.8202 108.216 -185.16 104.283 -286.956 100.615L-287.533 116.604ZM-404.128 113.318C-369.847 113.639 -329.627 115.087 -287.533 116.604L-286.956 100.615C-328.988 99.1001 -369.44 97.6417 -403.978 97.3191L-404.128 113.318ZM-418.871 387.235L-396.079 105.965L-412.027 104.673L-434.819 385.943L-418.871 387.235ZM-92.8022 369.787L-427.055 378.592L-426.634 394.586L-92.3808 385.782L-92.8022 369.787ZM-84.5915 1038V377.784H-100.591V1038H-84.5915ZM2039.41 1030H-92.5915V1046H2039.41V1030ZM2031.41 321.624V1038H2047.41V321.624H2031.41ZM3203.28 282.963L2039.2 313.626L2039.62 329.621L3203.7 298.957L3203.28 282.963ZM3213.82 46.1849L3195.51 290.362L3211.46 291.558L3229.77 47.3811L3213.82 46.1849Z" fill="#6DE635" mask="url(#path-3-inside-2_203_770)"/>
</g>
<defs>
<clipPath id="clip0_203_770">
<rect width="1920" height="123" fill="white" transform="translate(0.408691)"/>
</clipPath>
</defs>
</svg>
