<svg width="800" height="102" viewBox="0 0 800 102" fill="none" xmlns="http://www.w3.org/2000/svg">
<g clip-path="url(#clip0_114_521)">
<path d="M27.8405 0.169189L23.6802 0.169189L23.6802 101.166H27.8405V0.169189Z" fill="black"/>
<path d="M39.909 0.168945L37.8289 0.168945V101.166H39.909V0.168945Z" fill="black"/>
<path d="M46.3727 0.168701L44.2925 0.168701V101.166H46.3727V0.168701Z" fill="black"/>
<path d="M19.8113 0.168701L18.1609 0.168701L18.1609 101.166H19.8113L19.8113 0.168701Z" fill="black"/>
<path d="M13.4673 0.168945L11.8169 0.168945L11.8169 101.166H13.4673L13.4673 0.168945Z" fill="black"/>
<path d="M56.6949 0.168945L54.6147 0.168945V101.166H56.6949V0.168945Z" fill="black"/>
<path d="M468.032 0.168457L465.951 0.168457V101.166H468.032V0.168457Z" fill="black"/>
<path d="M632.022 0.168457L629.941 0.168457V101.166H632.022V0.168457Z" fill="black"/>
<path d="M421.459 0.169434L419.378 0.169434V101.167H421.459V0.169434Z" fill="black"/>
<path d="M431.593 0.168701L429.513 0.168701V101.166H431.593V0.168701Z" fill="black"/>
<path d="M439.459 0.168945L438.625 0.168945V101.166H439.459V0.168945Z" fill="black"/>
<path d="M375.523 0.168457L373.443 0.168457V101.166H375.523V0.168457Z" fill="black"/>
<path d="M385.65 0.168945L383.57 0.168945V101.166H385.65V0.168945Z" fill="black"/>
<path d="M396.008 0.168701L395.174 0.168701V101.166H396.008V0.168701Z" fill="black"/>
<path d="M89.2661 0.168457L85.1057 0.168457V101.166H89.2661V0.168457Z" fill="black"/>
<path d="M76.1999 0.169189L68.7043 0.169189V101.166H76.1999V0.169189Z" fill="black"/>
<path d="M155.436 0.16748L151.275 0.16748V101.165H155.436V0.16748Z" fill="black"/>
<path d="M205.73 0.168701L198.234 0.168701V101.166H205.73V0.168701Z" fill="black"/>
<path d="M322.289 0.169189L313.96 0.169189V101.166H322.289V0.169189Z" fill="black"/>
<path d="M363.154 0.168213L358.993 0.168213V101.165H363.154V0.168213Z" fill="black"/>
<path d="M346.744 0.168701L345.497 0.168701V101.166H346.744V0.168701Z" fill="black"/>
<path d="M332.741 0.168457L331.494 0.168457V101.166H332.741V0.168457Z" fill="black"/>
<path d="M117.941 0.168945L115.86 0.168945V101.166H117.941V0.168945Z" fill="black"/>
<path d="M137.161 0.168457L135.914 0.168457V101.166H137.161V0.168457Z" fill="black"/>
<path d="M127.345 0.169189L126.099 0.169189V101.166H127.345V0.169189Z" fill="black"/>
<path d="M175.413 0.168701L174.167 0.168701V101.166H175.413V0.168701Z" fill="black"/>
<path d="M186.896 0.167725L184.816 0.167725V101.165H186.896V0.167725Z" fill="black"/>
<path d="M210.561 0.169434L209.315 0.169434V101.167H210.561V0.169434Z" fill="black"/>
<path d="M216.51 0.168457L214.429 0.168457V101.166H216.51V0.168457Z" fill="black"/>
<path d="M165.588 0.16748L164.342 0.16748V101.165H165.588V0.16748Z" fill="black"/>
<path d="M145.241 0.169189L141.106 0.169189V101.166H145.241V0.169189Z" fill="black"/>
<path d="M107.635 0.169189L105.555 0.169189V101.166H107.635V0.169189Z" fill="black"/>
<path d="M99.297 0.168213L96.3831 0.168213V101.165H99.297V0.168213Z" fill="black"/>
<path d="M410.001 0.168457L405.841 0.168457V101.166H410.001V0.168457Z" fill="black"/>
<path d="M235.988 0.169434L233.908 0.169434V101.167H235.988V0.169434Z" fill="black"/>
<path d="M246.122 0.168701L244.042 0.168701V101.166H246.122V0.168701Z" fill="black"/>
<path d="M272.167 0.169434L268.419 0.169434V101.167H272.167V0.169434Z" fill="black"/>
<path d="M286.161 0.169434L282.413 0.169434V101.167H286.161V0.169434Z" fill="black"/>
<path d="M278.33 0.168945L276.25 0.168945V101.166H278.33V0.168945Z" fill="black"/>
<path d="M253.996 0.169189L253.162 0.169189V101.166H253.996V0.169189Z" fill="black"/>
<path d="M294.628 0.168457L293.794 0.168457V101.166H294.628V0.168457Z" fill="black"/>
<path d="M301.625 0.168457L300.791 0.168457V101.166H301.625V0.168457Z" fill="black"/>
<path d="M337.195 0.168945L336.361 0.168945V101.166H337.195V0.168945Z" fill="black"/>
<path d="M353.466 0.169434L351.386 0.169434V101.167H353.466V0.169434Z" fill="black"/>
<path d="M224.529 0.168213L220.369 0.168213V101.165H224.529V0.168213Z" fill="black"/>
<path d="M452.585 0.169434L448.425 0.169434V101.167H452.585V0.169434Z" fill="black"/>
<path d="M485.558 0.168213L481.398 0.168213V101.165H485.558V0.168213Z" fill="black"/>
<path d="M475.929 0.169434L471.768 0.169434V101.167H475.929V0.169434Z" fill="black"/>
<path d="M497.814 0.168213L496.568 0.168213V101.165H497.814V0.168213Z" fill="black"/>
<path d="M504.366 0.169678L503.12 0.169678V101.167H504.366V0.169678Z" fill="black"/>
<path d="M513.882 0.168457L509.721 0.168457V101.166H513.882V0.168457Z" fill="black"/>
<path d="M525.941 0.169189L523.861 0.169189V101.166H525.941V0.169189Z" fill="black"/>
<path d="M542.736 0.169434L540.656 0.169434V101.167H542.736V0.169434Z" fill="black"/>
<path d="M575.307 0.169189L571.147 0.169189V101.166H575.307V0.169189Z" fill="black"/>
<path d="M562.233 0.168213L554.738 0.168213V101.165H562.233V0.168213Z" fill="black"/>
<path d="M641.469 0.168457L637.309 0.168457V101.166H641.469V0.168457Z" fill="black"/>
<path d="M691.763 0.168457L684.268 0.168457V101.166H691.763V0.168457Z" fill="black"/>
<path d="M603.974 0.169189L601.894 0.169189V101.166H603.974V0.169189Z" fill="black"/>
<path d="M623.203 0.169189L621.957 0.169189V101.166H623.203V0.169189Z" fill="black"/>
<path d="M613.379 0.169434L612.132 0.169434V101.167H613.379V0.169434Z" fill="black"/>
<path d="M661.454 0.168701L660.208 0.168701V101.166H661.454V0.168701Z" fill="black"/>
<path d="M680.581 0.168457L679.334 0.168457V101.166H680.581V0.168457Z" fill="black"/>
<path d="M697.067 0.169189L695.821 0.169189V101.166H697.067V0.169189Z" fill="black"/>
<path d="M672.929 0.168701L670.849 0.168701V101.166H672.929V0.168701Z" fill="black"/>
<path d="M651.629 0.168945L650.383 0.168945V101.166H651.629V0.168945Z" fill="black"/>
<path d="M593.667 0.168213L591.587 0.168213V101.165H593.667V0.168213Z" fill="black"/>
<path d="M585.33 0.168457L582.417 0.168457V101.166H585.33V0.168457Z" fill="black"/>
<path d="M722.028 0.168457L719.948 0.168457V101.166H722.028V0.168457Z" fill="black"/>
<path d="M732.164 0.169189L730.084 0.169189V101.166H732.164V0.169189Z" fill="black"/>
<path d="M758.2 0.168457L754.453 0.168457V101.166H758.2V0.168457Z" fill="black"/>
<path d="M774.077 0.168213L766.581 0.168213V101.165H774.077V0.168213Z" fill="black"/>
<path d="M749.012 0.168457L746.932 0.168457V101.166H749.012V0.168457Z" fill="black"/>
<path d="M740.028 0.168213L739.194 0.168213V101.165H740.028V0.168213Z" fill="black"/>
<path d="M702.884 0.169189L702.05 0.169189V101.166H702.884V0.169189Z" fill="black"/>
<path d="M780.66 0.168701L779.826 0.168701V101.166H780.66V0.168701Z" fill="black"/>
<path d="M787.658 0.168701L786.824 0.168701V101.166H787.658V0.168701Z" fill="black"/>
<path d="M710.57 0.168945L706.41 0.168945V101.166H710.57V0.168945Z" fill="black"/>
</g>
<defs>
<clipPath id="clip0_114_521">
<rect width="798.757" height="100.812" fill="white" transform="translate(0.359863 0.316406)"/>
</clipPath>
</defs>
</svg>
