<svg width="1940" height="989" viewBox="0 0 1940 989" fill="none" xmlns="http://www.w3.org/2000/svg">
<path opacity="0.83" d="M88.5141 275.429C29.9962 319.192 53.7153 412.734 116.054 496.09C178.393 579.446 276.367 611.542 334.885 567.779C393.403 524.016 289.326 491.432 257.581 390.247C226.027 289.669 147.032 231.666 88.5141 275.429Z" fill="#8FC7F2"/>
<path opacity="0.83" d="M1793.89 464.907C1793.89 557.19 1719.08 632 1626.79 632C1534.51 632 1504.89 568.832 1504.89 476.549C1504.89 384.266 1581.76 330 1674.05 330C1766.33 330 1793.89 372.624 1793.89 464.907Z" fill="#8FC7F2"/>
<path opacity="0.83" d="M847.041 277.509C847.041 381.832 762.467 466.403 658.139 466.403C553.812 466.403 520.334 394.993 520.334 290.67C520.334 186.346 607.231 125 711.558 125C815.886 125 847.041 173.185 847.041 277.509Z" fill="#8FC7F2"/>
<path opacity="0.83" d="M1263.89 613.807C1263.89 718.131 1179.31 802.702 1074.99 802.702C970.658 802.702 937.18 731.291 937.18 626.968C937.18 522.644 1024.08 461.298 1128.4 461.298C1232.73 461.298 1263.89 509.484 1263.89 613.807Z" fill="#8FC7F2"/>
<path opacity="0.83" d="M326.892 116.474C326.892 165.366 287.285 205 238.428 205C189.57 205 173.892 171.533 173.892 122.642C173.892 73.7501 214.587 45 263.444 45C312.302 45 326.892 67.5823 326.892 116.474Z" fill="#8FC7F2"/>
<path opacity="0.83" d="M1939.98 162.393C1939.98 229.619 1885.61 284.116 1818.55 284.116C1751.49 284.116 1729.98 238.099 1729.98 170.873C1729.98 103.647 1785.83 64.116 1852.89 64.116C1919.95 64.116 1939.98 95.1667 1939.98 162.393Z" fill="#8FC7F2"/>
<path opacity="0.83" d="M1059.28 138.709C1109.95 47.1525 1206.69 40.0838 1289.68 86.0164C1372.68 131.949 1398.89 243.406 1348.22 334.962C1297.55 426.518 1271.3 307.518 1167.14 307.447C1063.6 307.377 1008.62 230.265 1059.28 138.709Z" fill="#8FC7F2"/>
<path opacity="0.83" d="M695.314 864.396C631.043 946.975 534.385 938.938 459.526 880.675C384.667 822.413 376.084 708.239 440.354 625.66C504.625 543.082 512.075 664.714 614.966 680.958C717.239 697.104 759.584 781.818 695.314 864.396Z" fill="#8FC7F2"/>
</svg>
