<svg width="595" height="717" viewBox="0 0 595 717" fill="none" xmlns="http://www.w3.org/2000/svg">
<path d="M50.755 10.2977L51.5802 2.51383L592.945 10.6381L589.808 31.3757L589.758 31.7014L589.85 32.0178L593.171 43.473L592.218 58.8205L592.215 58.8683L592.215 58.9162L593.183 602.026L588.896 605.476L587.444 606.645L588.896 607.813L593.185 611.265V709.549L542.898 710.486L537.523 705.529L536.201 704.309L535.239 705.83L532.283 710.503L212.896 712.967L199.082 708.142L198.117 707.804L197.45 708.58L193.53 713.142L59.0659 714.356L36.8823 711.001L36.0319 710.873L35.4913 711.542L33.0275 714.591L1.79663 714.873L1.79663 68.7135L5.82373 63.7618L6.72684 62.6514L5.65989 61.6973L1.79663 58.2426L1.79663 1.90708L40.399 2.47725L44.9229 16.9283L46.0895 20.6548L47.7178 17.1056L50.6267 10.765L50.7291 10.5419L50.755 10.2977Z" fill="#ECF8FF" stroke="black" stroke-width="3"/>
<mask id="mask0_114_105" style="mask-type:alpha" maskUnits="userSpaceOnUse" x="0" y="0" width="595" height="717">
<path d="M50.755 10.2977L51.5802 2.51383L592.945 10.6381L589.808 31.3757L589.758 31.7014L589.85 32.0178L593.171 43.473L592.218 58.8205L592.215 58.8683L592.215 58.9162L593.183 602.026L588.896 605.476L587.444 606.645L588.896 607.813L593.185 611.265V709.549L542.898 710.486L537.523 705.529L536.201 704.309L535.239 705.83L532.283 710.503L212.896 712.967L199.082 708.142L198.117 707.804L197.45 708.58L193.53 713.142L59.0659 714.356L36.8823 711.001L36.0319 710.873L35.4913 711.542L33.0275 714.591L1.79663 714.873L1.79663 68.7135L5.82373 63.7618L6.72684 62.6514L5.65989 61.6973L1.79663 58.2426L1.79663 1.90708L40.399 2.47725L44.9229 16.9283L46.0895 20.6548L47.7178 17.1056L50.6267 10.765L50.7291 10.5419L50.755 10.2977Z" fill="#ECF8FF" stroke="black" stroke-width="3"/>
</mask>
<g mask="url(#mask0_114_105)">
<path d="M22.4229 -8.39453L22.4229 734.433" stroke="#7BB2FF" stroke-opacity="0.2" stroke-width="2"/>
<path d="M95.9036 -8.39453V734.433" stroke="#7BB2FF" stroke-opacity="0.2" stroke-width="2"/>
<path d="M169.384 -8.39453V734.433" stroke="#7BB2FF" stroke-opacity="0.2" stroke-width="2"/>
<path d="M242.865 -8.39453V734.433" stroke="#7BB2FF" stroke-opacity="0.2" stroke-width="2"/>
<path d="M316.346 -8.39453V734.433" stroke="#7BB2FF" stroke-opacity="0.2" stroke-width="2"/>
<path d="M389.826 -8.39453V734.433" stroke="#7BB2FF" stroke-opacity="0.2" stroke-width="2"/>
<path d="M463.307 -8.39465V734.432" stroke="#7BB2FF" stroke-opacity="0.2" stroke-width="2"/>
<path d="M536.788 -8.39453V734.433" stroke="#7BB2FF" stroke-opacity="0.2" stroke-width="2"/>
<path d="M59.1631 -8.39453L59.1631 734.433" stroke="#7BB2FF" stroke-opacity="0.2" stroke-width="2"/>
<path d="M132.644 -8.39453V734.433" stroke="#7BB2FF" stroke-opacity="0.2" stroke-width="2"/>
<path d="M206.125 -8.39453V734.433" stroke="#7BB2FF" stroke-opacity="0.2" stroke-width="2"/>
<path d="M279.605 -8.39453V734.433" stroke="#7BB2FF" stroke-opacity="0.2" stroke-width="2"/>
<path d="M353.086 -8.39453V734.433" stroke="#7BB2FF" stroke-opacity="0.2" stroke-width="2"/>
<path d="M426.567 -8.39453V734.433" stroke="#7BB2FF" stroke-opacity="0.2" stroke-width="2"/>
<path d="M500.047 -8.39453V734.433" stroke="#7BB2FF" stroke-opacity="0.2" stroke-width="2"/>
<path d="M573.528 -8.39465V734.432" stroke="#7BB2FF" stroke-opacity="0.2" stroke-width="2"/>
<path d="M-71.2141 638.435L667.165 638.435" stroke="#7BB2FF" stroke-opacity="0.2" stroke-width="2"/>
<path d="M-71.2141 552.191L667.165 552.191" stroke="#7BB2FF" stroke-opacity="0.2" stroke-width="2"/>
<path d="M-71.2141 465.947L667.165 465.947" stroke="#7BB2FF" stroke-opacity="0.2" stroke-width="2"/>
<path d="M-71.2141 379.703L667.165 379.703" stroke="#7BB2FF" stroke-opacity="0.2" stroke-width="2"/>
<path d="M-71.2141 293.459L667.165 293.459" stroke="#7BB2FF" stroke-opacity="0.2" stroke-width="2"/>
<path d="M-71.2141 207.215L667.165 207.215" stroke="#7BB2FF" stroke-opacity="0.2" stroke-width="2"/>
<path d="M-71.2141 120.971L667.165 120.971" stroke="#7BB2FF" stroke-opacity="0.2" stroke-width="2"/>
<path d="M-71.2141 34.7275L667.165 34.7275" stroke="#7BB2FF" stroke-opacity="0.2" stroke-width="2"/>
<path d="M-71.2141 595.313L667.165 595.313" stroke="#7BB2FF" stroke-opacity="0.2" stroke-width="2"/>
<path d="M-71.2141 509.069L667.165 509.069" stroke="#7BB2FF" stroke-opacity="0.2" stroke-width="2"/>
<path d="M-71.2141 681.557L667.165 681.557" stroke="#7BB2FF" stroke-opacity="0.2" stroke-width="2"/>
<path d="M-71.2141 422.825L667.165 422.825" stroke="#7BB2FF" stroke-opacity="0.2" stroke-width="2"/>
<path d="M-71.2141 336.581L667.165 336.581" stroke="#7BB2FF" stroke-opacity="0.2" stroke-width="2"/>
<path d="M-71.2141 250.337L667.165 250.337" stroke="#7BB2FF" stroke-opacity="0.2" stroke-width="2"/>
<path d="M-71.2141 164.093L667.165 164.093" stroke="#7BB2FF" stroke-opacity="0.2" stroke-width="2"/>
<path d="M-71.2141 77.8495L667.165 77.8495" stroke="#7BB2FF" stroke-opacity="0.2" stroke-width="2"/>
</g>
<path d="M51.7494 10.4031L52.4784 3.52742L591.785 11.6208L588.819 31.2262L588.737 31.769L588.89 32.2962L592.162 43.5846L591.22 58.7585L591.215 58.8381L591.215 58.9179L592.182 601.548L588.269 604.697L585.849 606.645L588.269 608.592L592.185 611.744V708.567L543.281 709.478L538.201 704.794L535.997 702.761L534.394 705.295L531.729 709.507L213.062 711.966L199.412 707.198L197.803 706.635L196.691 707.929L193.067 712.146L59.1367 713.355L37.0318 710.012L35.6145 709.798L34.7135 710.913L32.5464 713.595L2.79663 713.864L2.79663 69.0688L6.59954 64.3928L8.10474 62.542L6.32648 60.9519L2.79663 57.7953L2.79663 2.92196L39.6608 3.46646L43.9686 17.2271L45.9129 23.4379L48.6267 17.5226L51.5356 11.182L51.7063 10.8101L51.7494 10.4031Z" stroke="black" stroke-width="5"/>
</svg>
