<svg width="1920" height="624" viewBox="0 0 1920 624" fill="none" xmlns="http://www.w3.org/2000/svg">
<g clip-path="url(#clip0_203_982)">
<mask id="path-1-inside-1_203_982" fill="white">
<path fill-rule="evenodd" clip-rule="evenodd" d="M-1306 43.4345C-1269.35 21.6275 -1061.48 -26.0769 -848.426 18.1949C-687.176 51.7017 -601.177 40.9193 -514.152 30.0082C-457.447 22.8986 -400.306 15.7344 -321.628 20.7326C-225.321 26.8507 -175.616 38.5253 -128.082 49.69C-77.1851 61.6445 -28.7766 73.0145 71.6863 76.3535C175.877 79.8163 226.368 70.7531 280.408 61.0525C337.043 50.8861 397.578 40.0198 527.914 42.1391C619.257 43.6244 684.557 50.5511 746.804 57.1542C858.125 68.9628 959.687 79.7362 1183 56.4999C1442.95 29.4515 1674.27 42.7911 1821.63 51.289C1871.65 54.1734 1911.99 56.5 1940.5 56.5C1988.14 56.5 2049.48 66.8995 2113.34 77.7235C2184.19 89.735 2258.13 102.269 2319.85 101.696L2342.64 381.646L2008.39 372.883V1030H-123.611V316.986L-1287.69 286.465L-1306 43.4345Z"/>
</mask>
<path fill-rule="evenodd" clip-rule="evenodd" d="M-1306 43.4345C-1269.35 21.6275 -1061.48 -26.0769 -848.426 18.1949C-687.176 51.7017 -601.177 40.9193 -514.152 30.0082C-457.447 22.8986 -400.306 15.7344 -321.628 20.7326C-225.321 26.8507 -175.616 38.5253 -128.082 49.69C-77.1851 61.6445 -28.7766 73.0145 71.6863 76.3535C175.877 79.8163 226.368 70.7531 280.408 61.0525C337.043 50.8861 397.578 40.0198 527.914 42.1391C619.257 43.6244 684.557 50.5511 746.804 57.1542C858.125 68.9628 959.687 79.7362 1183 56.4999C1442.95 29.4515 1674.27 42.7911 1821.63 51.289C1871.65 54.1734 1911.99 56.5 1940.5 56.5C1988.14 56.5 2049.48 66.8995 2113.34 77.7235C2184.19 89.735 2258.13 102.269 2319.85 101.696L2342.64 381.646L2008.39 372.883V1030H-123.611V316.986L-1287.69 286.465L-1306 43.4345Z" fill="#9239D1"/>
<path d="M-848.426 18.1949L-846.798 10.3622L-848.426 18.1949ZM-1306 43.4345L-1313.98 44.0354L-1314.35 39.0933L-1310.09 36.5593L-1306 43.4345ZM-514.152 30.0082L-513.156 37.9461L-514.152 30.0082ZM-321.628 20.7326L-322.135 28.7165L-321.628 20.7326ZM-128.082 49.69L-126.252 41.902L-128.082 49.69ZM71.6863 76.3535L71.4207 84.3491L71.6863 76.3535ZM280.408 61.0525L278.994 53.1784L280.408 61.0525ZM527.914 42.1391L528.044 34.1402L527.914 42.1391ZM746.804 57.1542L745.96 65.1096L746.804 57.1542ZM1183 56.4999L1183.83 64.4569L1183 56.4999ZM1821.63 51.289L1822.09 43.3022L1821.63 51.289ZM1940.5 56.5V48.5V56.5ZM2113.34 77.7235L2114.67 69.8361L2113.34 77.7235ZM2319.85 101.696L2319.77 93.6959L2327.22 93.6267L2327.82 101.046L2319.85 101.696ZM2342.64 381.646L2350.61 380.997L2351.33 389.877L2342.43 389.643L2342.64 381.646ZM2008.39 372.883H2000.39V364.67L2008.6 364.885L2008.39 372.883ZM2008.39 1030H2016.39V1038H2008.39V1030ZM-123.611 1030V1038H-131.611V1030H-123.611ZM-123.611 316.986L-123.402 308.988L-115.611 309.193V316.986H-123.611ZM-1287.69 286.465L-1287.9 294.463L-1295.13 294.273L-1295.67 287.066L-1287.69 286.465ZM-850.053 26.0276C-955.565 4.10281 -1059.92 4.93641 -1142.49 13.9875C-1183.76 18.5113 -1219.49 25.0776 -1247.1 31.8358C-1275.01 38.6688 -1293.85 45.5176 -1301.91 50.3098L-1310.09 36.5593C-1299.82 30.4479 -1278.93 23.156 -1250.9 16.2947C-1222.57 9.35856 -1186.15 2.67698 -1144.24 -1.91724C-1060.44 -11.1022 -954.343 -11.9849 -846.798 10.3622L-850.053 26.0276ZM-513.156 37.9461C-600.606 48.9104 -687.587 59.787 -850.053 26.0276L-846.798 10.3622C-686.764 43.6164 -601.747 32.9282 -515.147 22.0704L-513.156 37.9461ZM-322.135 28.7165C-400.007 23.7696 -456.507 30.8435 -513.156 37.9461L-515.147 22.0704C-458.386 14.9538 -400.606 7.69926 -321.121 12.7487L-322.135 28.7165ZM-129.911 57.4781C-177.224 46.3653 -226.449 34.7952 -322.135 28.7165L-321.121 12.7487C-224.193 18.9063 -174.008 30.6853 -126.252 41.902L-129.911 57.4781ZM71.4207 84.3491C-29.7627 80.9861 -78.7324 69.4988 -129.911 57.4781L-126.252 41.902C-75.6377 53.7902 -27.7905 65.0428 71.9521 68.3579L71.4207 84.3491ZM281.821 68.9267C227.478 78.6817 176.381 87.8375 71.4207 84.3491L71.9521 68.3579C175.374 71.7952 225.258 62.8244 278.994 53.1784L281.821 68.9267ZM527.784 50.138C398.12 48.0297 338.126 58.8196 281.821 68.9267L278.994 53.1784C335.96 42.9527 397.036 32.0099 528.044 34.1402L527.784 50.138ZM745.96 65.1096C683.748 58.5103 618.748 51.6172 527.784 50.138L528.044 34.1402C619.767 35.6316 685.365 42.592 747.648 49.1988L745.96 65.1096ZM1183.83 64.4569C959.785 87.7692 857.631 76.9553 745.96 65.1096L747.648 49.1988C858.619 60.9704 959.588 71.7032 1182.17 48.5429L1183.83 64.4569ZM1821.17 59.2757C1673.82 50.7787 1443.07 37.4818 1183.83 64.4569L1182.17 48.5429C1442.83 21.4213 1674.71 34.8035 1822.09 43.3022L1821.17 59.2757ZM1940.5 64.5C1911.7 64.5 1871.08 62.154 1821.17 59.2757L1822.09 43.3022C1872.21 46.1929 1912.28 48.5 1940.5 48.5V64.5ZM2112 85.611C2047.9 74.7451 1987.31 64.5 1940.5 64.5V48.5C1988.96 48.5 2051.07 59.0539 2114.67 69.8361L2112 85.611ZM2319.92 109.695C2257.35 110.277 2182.64 97.5865 2112 85.611L2114.67 69.8361C2185.74 81.8835 2258.92 94.2617 2319.77 93.6959L2319.92 109.695ZM2334.66 382.295L2311.87 102.345L2327.82 101.046L2350.61 380.997L2334.66 382.295ZM2008.6 364.885L2342.85 373.649L2342.43 389.643L2008.18 380.88L2008.6 364.885ZM2000.39 1030V372.883H2016.39V1030H2000.39ZM-123.611 1022H2008.39V1038H-123.611V1022ZM-115.611 316.986V1030H-131.611V316.986H-115.611ZM-1287.48 278.468L-123.402 308.988L-123.821 324.983L-1287.9 294.463L-1287.48 278.468ZM-1298.02 42.8337L-1279.72 285.865L-1295.67 287.066L-1313.98 44.0354L-1298.02 42.8337Z" fill="#6DE635" mask="url(#path-1-inside-1_203_982)"/>
<path d="M1998 459.494C1998 511.136 1955.03 553 1902.02 553C1849.01 553 1832 517.651 1832 466.009C1832 414.367 1876.15 384 1929.16 384C1982.17 384 1998 407.853 1998 459.494Z" fill="#7728AE"/>
<path d="M690 363.955C690 507.574 570.403 624 422.872 624C275.341 624 228 525.692 228 382.073C228 238.453 350.882 154 498.412 154C645.943 154 690 220.336 690 363.955Z" fill="#7728AE"/>
<path d="M815.206 124.268C855.706 112.522 898.345 136.813 910.442 178.523C922.539 220.233 898.698 241.658 858.198 253.404C817.698 265.15 783.807 237.316 771.71 195.606C759.612 153.896 774.706 136.014 815.206 124.268Z" fill="#7728AE"/>
<path d="M895.896 486.457C1024.03 449.294 1185.94 526.892 1224.22 658.857C1262.49 790.822 1111.35 845.342 983.213 882.505C855.077 919.668 747.849 831.605 709.575 699.64C671.302 567.674 767.759 523.62 895.896 486.457Z" fill="#7728AE"/>
<path d="M-38.7706 351.204C38.6837 328.741 133.521 432.673 187.5 546.036C241.479 659.398 161.749 716.538 84.2943 739.002C6.84001 761.466 -68.8397 670.776 -105.018 546.036C-141.196 421.295 -116.225 373.668 -38.7706 351.204Z" fill="#7728AE"/>
</g>
<defs>
<clipPath id="clip0_203_982">
<rect width="1920" height="624" fill="white"/>
</clipPath>
</defs>
</svg>
