<svg width="98" height="88" viewBox="0 0 98 88" fill="none" xmlns="http://www.w3.org/2000/svg">
<path d="M21.2735 71.6645C22.0065 71.6645 22.7704 71.6336 23.555 71.5923C25.9294 70.0462 28.3967 68.7061 30.9465 67.6135C31.2666 68.5825 31.6072 69.5102 31.9686 70.4276C33.0938 70.1905 34.2397 69.9225 35.4166 69.6132C34.9933 68.5721 34.601 67.4795 34.2294 66.356C38.5859 64.8613 43.1488 64.0161 47.815 63.8512V65.2633C50.7055 63.9955 53.6374 62.5317 56.5795 60.8722C54.8246 60.6248 53.0489 60.4702 51.263 60.4083V45.4826H68.2037C68.1418 48.2863 67.9353 51.0179 67.6049 53.6567C68.8747 52.6981 70.1342 51.7085 71.3833 50.6777C71.5175 48.9769 71.6001 47.2555 71.6311 45.4929H77.1747C78.3413 44.3487 79.4562 43.2045 80.4885 42.0604H71.6311C71.4969 35.2366 70.6091 28.856 69.1018 23.2383C72.7563 21.7024 76.256 19.7336 79.5491 17.3422C82.9765 21.2179 85.6606 25.7637 87.3846 30.7424L90.5539 29.3817C84.5869 12.4769 68.4515 0.334229 49.5183 0.334229C25.5371 0.334229 6.01552 19.8161 6.01552 43.7612C6.01552 54.1721 9.70098 63.7275 15.8331 71.2213C17.4642 71.5099 19.2811 71.6645 21.2632 71.6645H21.2735ZM77.1334 14.8374C74.2739 16.8783 71.2491 18.5688 68.1005 19.9191C66.0358 13.6313 63.1556 8.51865 59.7282 5.09645C66.3558 6.83848 72.3124 10.2504 77.1334 14.8374ZM51.2423 3.95228C56.7963 5.09645 61.7309 11.7141 64.8279 21.187C60.4715 22.6816 55.9085 23.5269 51.2423 23.6918V3.95228ZM51.2423 27.1243C56.2492 26.9594 61.1322 26.0626 65.7983 24.4855C67.192 29.7631 68.0489 35.7417 68.1831 42.0501H51.2423V27.1243ZM47.8047 60.398C42.8081 60.563 37.9148 61.4597 33.2487 63.0368C31.855 57.7592 30.9982 51.7807 30.864 45.4723H47.8047V60.398ZM47.8047 42.0398H30.864C30.9982 35.7314 31.8447 29.7528 33.2487 24.4752C37.9148 26.0626 42.8081 26.9491 47.8047 27.114V42.0398ZM47.8047 3.94197V23.6815C43.1385 23.5166 38.5755 22.6713 34.2191 21.1767C37.3161 11.7038 42.2507 5.08614 47.8047 3.94197ZM39.3085 5.07584C35.8811 8.49804 33.0112 13.6107 30.9362 19.8985C27.7876 18.5482 24.7628 16.8577 21.9032 14.8167C26.7243 10.2298 32.6809 6.81786 39.3085 5.07584ZM19.4979 17.3112C22.791 19.7027 26.2907 21.6818 29.9452 23.2073C28.438 28.8251 27.5501 35.1954 27.4159 42.0295H9.50483C9.90744 32.5772 13.6135 23.9598 19.4979 17.3112ZM27.4263 45.462C27.5605 52.2858 28.4483 58.6663 29.9555 64.2841C26.301 65.82 22.8014 67.7887 19.5082 70.1802C13.6239 63.5316 9.91777 54.9143 9.51516 45.462H27.4366H27.4263ZM91.5965 49.5129L92.4431 50.7396C89.0776 71.3759 71.1149 87.1778 49.5183 87.1778C42.4468 87.1778 35.7779 85.477 29.8729 82.4774C31.855 82.1991 33.8887 81.828 35.974 81.3642C37.0683 81.7559 38.1729 82.127 39.3085 82.4259C38.8336 81.9517 38.3794 81.4466 37.9355 80.9106C39.1743 80.6014 40.4234 80.2612 41.6829 79.8902C43.5824 81.828 45.6471 83.1165 47.8047 83.5597V77.9111C48.9506 77.4987 50.0965 77.0555 51.2423 76.602V83.5597C55.7846 82.6217 59.914 78.0244 62.9594 71.2006C64.6008 70.3348 66.2113 69.4277 67.7908 68.5C65.7467 74.3652 62.9904 79.1583 59.7385 82.4156C66.3661 80.6736 72.3227 77.2617 77.1438 72.6747C74.4907 70.7883 71.693 69.2009 68.7818 67.9021C69.9484 67.2012 71.1046 66.4797 72.2402 65.7375C74.7694 67.0054 77.2057 68.4794 79.5491 70.1802C83.885 65.2736 87.0336 59.2951 88.5615 52.7084C89.6248 51.657 90.6365 50.5953 91.6069 49.5129H91.5965ZM97.4706 30.5568L96.0356 49.1934L91.8856 43.2149C68.5753 73.0561 11.714 91.7751 1.56614 69.4586C-0.963099 64.0264 0.513148 57.6561 3.35208 51.9868C3.45532 51.7807 3.72373 51.7394 3.7547 51.925C3.93019 52.9455 4.14699 54.0072 4.41539 55.0792C4.44636 55.2029 4.41539 55.6977 4.3741 55.8213C-6.21771 83.8999 44.2018 81.962 78.9504 49.1213C81.9648 46.2454 84.7728 43.1839 87.2194 39.8957L80.2098 37.9785L97.4706 30.5877V30.5568Z" fill="black"/>
</svg>
