<svg width="1907" height="1174" viewBox="0 0 1907 1174" fill="none" xmlns="http://www.w3.org/2000/svg">
<g clip-path="url(#clip0_220_152)">
<path d="M-26.8405 66.0021L-28.0241 57.0803L-35.8405 58.1173V66.0021V1156V1165.25L-26.5985 1165L1942.4 1112.05L1951.16 1111.81V1103.05V81.0037V71.0629L1941.27 72.048L1942.16 81.0037C1941.27 72.048 1941.27 72.048 1941.26 72.0483L1941.25 72.0496L1941.19 72.0553L1940.95 72.0788C1940.74 72.0997 1940.42 72.131 1939.99 72.1723C1939.12 72.2548 1937.83 72.3768 1936.12 72.5337C1932.69 72.8476 1927.58 73.3012 1920.89 73.8577C1907.5 74.9709 1887.77 76.496 1862.42 78.1392C1811.72 81.4258 1738.57 85.1847 1648.85 87.0667C1469.37 90.8311 1223.66 87.0841 958.673 57.0593C692.585 26.9103 445.974 26.9144 265.908 34.4482C175.864 38.2156 102.43 43.8672 51.4868 48.5797C26.0143 50.936 6.16265 53.0577 -7.33362 54.592C-14.0818 55.3592 -19.2413 55.9795 -22.7203 56.4089C-24.4598 56.6236 -25.7792 56.7906 -26.6669 56.9043C-27.1108 56.9612 -27.4468 57.0047 -27.6735 57.0343L-27.9313 57.0681L-27.9984 57.0769L-28.0164 57.0793C-28.0211 57.0799 -28.0241 57.0803 -26.8405 66.0021Z" fill="#1A0434" stroke="black" stroke-width="18"/>
<mask id="mask0_220_152" style="mask-type:alpha" maskUnits="userSpaceOnUse" x="-38" y="27" width="1970" height="1138">
<path d="M-37.0001 53.7399C-37.0001 53.7399 416.5 -6.42487 947.5 53.7399C1478.5 113.905 1932 68.7415 1932 68.7415V1111.79L-37.0001 1164.74V53.7399Z" fill="#1A0434"/>
</mask>
<g mask="url(#mask0_220_152)">
<path fill-rule="evenodd" clip-rule="evenodd" d="M-207.16 397.639C-118.431 354.25 114.424 289.695 336.014 378.59C551.238 464.931 487.241 614.405 446.509 709.538C434.821 736.838 425.048 759.664 424.34 775.238C421.163 845.084 487.205 918.264 703.84 765.238C789.145 704.98 825.69 604.755 864.483 498.366C924.205 334.578 989.255 156.18 1245.75 86.5072C1476.83 23.738 1612.03 69.3075 1768.49 122.047C1898.51 165.872 2043.22 214.648 2269.84 210.325L2253.96 -177.637C1940.34 -186.104 1253.88 -178.907 1017.05 -82.393C867.513 -21.4561 821.063 63.1321 783.057 132.342C745.82 200.153 716.689 253.201 606.648 254.772C530.021 255.867 449.244 235.469 362.602 213.59C197.83 171.981 11.8434 125.016 -207.16 210.325V397.639ZM-201.061 938.695C-154.679 741.979 68.2618 651.102 121.068 719.77C167.678 780.38 127.595 823.216 84.9628 868.775C41.0055 915.751 -5.6615 965.622 37.2001 1040.86C121.068 1188.08 264.751 1344.66 831.84 1239.24C1147.35 1180.58 1204.09 1036.15 1256.14 903.646C1297.71 797.819 1336.3 699.594 1501.34 658.738C1709.02 607.327 1836.28 739.992 1956.91 865.753C2052.19 965.072 2143.33 1060.08 2266.68 1056.72L2275.26 1214.73L2283.84 1372.74H-253.16L-201.061 938.695ZM126.887 98.4881C-58.5491 84.2649 -172.224 104.414 -205.882 116.267L-247.16 -180.262H1031.84C910.169 -146.599 872.136 -97.0154 829.569 -41.5209C791.043 8.70699 748.802 63.777 637.471 116.267C484.925 188.189 412.844 166.473 317.168 137.647C265.87 122.192 207.79 104.694 126.887 98.4881ZM1093.51 891.102C1172.73 774.359 1255.7 652.095 1471.98 583.446C1634.76 531.775 1720.71 556.129 1824.77 585.615C1929.65 615.337 2052.95 650.273 2291.89 617.827C2672.68 566.118 2596.83 361.114 2511.31 265.076C2525.52 319.857 2506.77 429.418 2318.02 429.418C2205.01 429.418 2156.39 407.959 2088.09 377.815C2013.81 345.031 1916.26 301.974 1687.27 265.076C1247.74 194.251 904.638 518.579 808.34 709.738C712.042 900.897 499.364 992.582 383.806 930.695C312.773 892.655 335.305 847.079 363.692 789.657C381.487 753.663 401.582 713.014 402.378 666.648C404.441 546.314 326.715 443.171 96.9746 429.418C-86.8174 418.416 -242.362 507.349 -297.16 553.19V850.931L-279.964 836.297C-277.865 834.538 -275.736 832.754 -273.579 830.945C-157.583 733.693 41.2245 567.013 248.58 602.929C364.258 622.966 340.472 738.953 229.275 813.112C69.4608 919.693 56.4652 1180.21 474.84 1188.24C886.516 1196.14 986.603 1048.65 1093.51 891.102Z" fill="#2D0859"/>
</g>
<path d="M1938.16 1108.16L-22.8405 1160.89V57.5238C-22.3257 57.4594 -21.7547 57.3884 -21.1278 57.311C-17.689 56.8866 -12.5709 56.2712 -5.86519 55.5088C7.54619 53.9842 27.3074 51.8719 52.6842 49.5245C103.438 44.8295 176.652 39.194 266.452 35.4368C446.061 27.9221 691.971 27.9239 957.209 57.9767C1222.94 88.0847 1469.25 91.8366 1649.12 88.0638C1739.06 86.1774 1812.4 82.4093 1863.26 79.112C1888.69 77.4633 1908.51 75.9324 1921.97 74.813C1928.7 74.2534 1933.84 73.7966 1937.3 73.4795C1937.6 73.4522 1937.89 73.4259 1938.16 73.4007V1108.16Z" stroke="#6DE635" stroke-width="8"/>
</g>
<defs>
<clipPath id="clip0_220_152">
<rect width="1920" height="1201" fill="white" transform="translate(-13)"/>
</clipPath>
</defs>
</svg>
